<svg width="300" height="57" xmlns="http://www.w3.org/2000/svg"><g fill="none" fill-rule="evenodd"><path d="M4.749 23.591h22.027c.224 2.247.485 4.436.639 6.632.102 1.532-1.105.792-1.807 1.009-.134-.447-.242-.798-.35-1.15-1.086-3.497-1.807-4.084-5.516-4.25a255.504 255.504 0 00-8.476-.243c-.37 0-1.06.44-1.066.683-.077 3.951-.077 7.908-.077 12.16 3.383-.16 6.626-.256 9.856-.48 1.2-.082 1.614-1.218 1.678-2.17.102-1.436.779-1.64 2.024-1.333v9.989c-1.156.28-1.87.223-1.985-1.277-.135-1.736-.837-2.4-2.669-2.483-2.91-.127-5.834-.032-8.853-.032 0 3.505-.12 6.939.045 10.366.096 1.915 1.213 2.668 3.543 2.873.638.05 1.219 0 1.914 0v1.646H0v-1.615h1.328c2.483-.166 3.415-1.148 3.415-3.695V33.07l.006-9.479zm121.199 20.981c0 2.636-.083 5.106.032 7.615.057 1.276 1.034 1.915 2.323 2.023.709.07 1.628.077 1.174 1.347h-11.412l-.268-.358c.344-.293.638-.753 1.027-.849 2.937-.74 3.077-.88 3.077-3.88V30.095c4.098.268 8.08.358 12.013.856 2.553.319 4.41 1.825 4.787 4.634.421 3.153-.728 5.527-3.504 7.098-.53.293-1.086.542-1.8.906.836 1.18 1.614 2.279 2.387 3.39 1.276 1.818 2.553 3.625 3.76 5.47a3.594 3.594 0 002.884 1.761c.951.077.951.128 1.009 1.41-2.068 0-4.13.039-6.192-.038-.344 0-.753-.478-.989-.83-1.85-2.782-3.727-5.553-5.457-8.412-.792-1.309-1.64-2.087-3.236-1.78a8.936 8.936 0 01-1.615.012zm0-1.475c3.076 0 6.198.48 7.92-2.674 1.169-2.138 1.233-4.468-.35-6.517-1.436-1.877-4.864-2.668-7.57-1.832v11.023z" fill="#FFF" fill-rule="nonzero"/><path d="M221.22 56.367c-4.96-.12-9.09-1.812-11.969-5.93-4.85-6.95-1.455-17.01 6.817-19.742 5.802-1.914 11.445-1.512 15.957 3.16 6.83 7.066 3.192 19.327-6.382 21.753-1.45.37-2.969.51-4.424.76zm9.752-12.465c-.14-1.354-.236-2.72-.434-4.066a13.072 13.072 0 00-.568-2.183 8.7 8.7 0 00-8.132-6.153c-5.138-.096-7.876 1.493-9.383 5.783a14.042 14.042 0 001.762 13.314c3.16 4.468 9.504 5.356 13.455 1.883 2.56-2.247 3.37-5.246 3.3-8.578zm31.672.274c2.043 0 3.926-.032 5.802.038.307 0 .6.466 1.08.868-2.88.85-2.88.85-2.886 3.6v6c-3.453.798-7.021 1.781-10.717 1.494-5.336-.415-10.047-2.272-12.721-7.168-3.294-6.051-1.226-14.1 6.28-17.598 3.869-1.812 7.928-1.838 12.039-1.474 1.257.143 2.503.376 3.728.696.3.063.74.376.772.638.242 1.915.396 3.83.574 5.744-.944.466-1.353.122-1.678-.765-1.213-3.313-3.192-4.711-6.747-4.698a25.736 25.736 0 00-4.468.306 7.947 7.947 0 00-6.492 5.623 14.68 14.68 0 00.703 11.49 9.421 9.421 0 007.838 5.419c1.783.1 3.573.027 5.342-.217 1.092-.102 1.583-.836 1.564-1.979-.045-2.17 0-4.347 0-6.523l-.013-1.494zm-87.12 11.279v-1.066c.11-.076.23-.136.357-.179.6-.108 1.22-.166 1.807-.313 1.276-.306 2.119-.919 2.125-2.393.038-7.41.121-14.828.179-22.238v-3.102h9.16l.127 1.276c-.44.045-.804.102-1.162.115-2.591.134-3.46.977-3.466 3.58-.025 6.384-.025 12.767 0 19.15 0 2.285.422 2.891 2.764 3.05 2.575.147 5.157.135 7.73-.038 2.17-.121 3.191-1.755 3.976-3.555a3.55 3.55 0 01.537-1.136 1.768 1.768 0 011.193-.517c.198 0 .55.734.485 1.06a115.46 115.46 0 01-1.423 5.744c-.174.392-.534.67-.957.74-7.705.032-15.409 0-23.113 0-.09-.038-.172-.114-.32-.178z" fill="#FC9628" fill-rule="nonzero"/><path d="M147.86 55.148c.332-.249.639-.683 1.015-.72 2.643-.275 3.026-.378 3.115-3.103.179-5.515.23-11.042 0-16.557-.121-3.039-.428-3.026-4.015-3.396.517-.485.81-.996 1.104-1.002 5.745-.045 11.534-.032 17.298 0 .275 0 .55 0 .906.05.18 1.973.345 3.875.524 5.854h-1.41c-.269-.785-.486-1.545-.786-2.279a2.879 2.879 0 00-2.623-1.87c-2.26-.083-4.52 0-6.894 0v9.332c2.056 0 4.079.038 6.096 0 1.047 0 1.577-.69 1.73-1.717.127-.913.536-1.487 1.621-1.028v7.82h-1.226a11.125 11.125 0 01-.389-1.322 1.851 1.851 0 00-2.042-1.723h-5.905v9.332c0 .842.288 1.193 1.162 1.174 2.31-.038 4.634.045 6.945-.045 2.31-.089 3.242-1.87 3.95-3.72.345-.914.773-1.348 1.916-.888-.53 2.08-1.06 4.18-1.615 6.345h-20.145l-.332-.537zM47.361 30.402h10.334l.256.357c-.352.294-.639.734-1.06.85-2.42.67-2.617.72-2.77 3.19-.198 3.339-.153 6.69-.3 10.035-.122 2.86-.677 5.642-2.553 7.908-2.751 3.287-6.492 3.677-10.43 3.37a8.853 8.853 0 01-1.52-.287c-5.47-1.353-6.772-4.417-6.957-8.368-.268-5.566-.07-11.151-.063-16.723 0-.083.07-.166.14-.32h7.29l.325.262c-.307.307-.562.785-.926.887-2.86.805-2.872.786-2.878 3.734 0 3.498-.077 7.022.05 10.488.056 1.453.36 2.887.9 4.238 1.226 3.032 4.27 4.391 8.139 3.874a7.021 7.021 0 005.936-5.993c.702-4.617.798-9.305.287-13.947-.127-1.353-.906-2.017-2.298-2.24-.683-.115-2.157.466-1.902-1.315zm41.91.006h7.443l.32.275c-.307.3-.563.778-.92.868-2.598.638-2.879.638-2.936 3.236a90.816 90.816 0 00.421 13.25c.549 4.373 3.223 6.026 8.004 5.867a6.657 6.657 0 006.594-6.339c.364-4.468.306-8.936.3-13.404 0-1.646-.683-2.144-2.375-2.412-.555-.09-1.104-.211-2.106-.409.453-.447.734-.977 1.021-.983a83.08 83.08 0 019.894.306c-.281.294-.517.792-.85.862-3 .638-2.942 1.15-3.19 4.258-.211 2.674.044 5.387-.09 8.074a24.383 24.383 0 01-.81 5.266c-1.315 4.73-4.698 6.69-9.013 7.021a17.406 17.406 0 01-5.164-.498c-4.066-.964-6.383-3.517-6.504-7.66-.16-5.795-.039-11.61-.039-17.578zm-18.427 1.641H61.27v-1.59h23.214l.358 5.687c-.996.517-1.385.243-1.685-.708-.862-2.783-1.685-3.338-4.609-3.364h-3.625c-.039.434-.096.792-.096 1.149v17.298c0 3.019.874 3.644 3.191 3.772.588.032 1.711-.051 1.175 1.277H66.79c-.204-1.047-.204-1.047.702-1.277 3.255-.747 3.345-.843 3.351-4.225.006-5.93 0-11.873 0-18.02z" fill="#FFF" fill-rule="nonzero"/><path d="M294.484 28.404a4.76 4.76 0 00-2.497.708l-3.807-3.806a7.616 7.616 0 001.517-4.562 7.66 7.66 0 00-6.136-7.506l.55-6.284a3.51 3.51 0 10-4.192-3.444c0 1.507.95 2.788 2.283 3.286l-.551 6.309a7.654 7.654 0 00-6.697 4.73l-2.102-.563a2.864 2.864 0 00-2.854-2.7 2.872 2.872 0 100 5.745c.961 0 1.808-.477 2.33-1.203l2.132.57c-.048.348-.082.7-.082 1.06a7.66 7.66 0 007.66 7.66 7.625 7.625 0 004.82-1.711l3.728 3.727a4.762 4.762 0 00-.889 2.771 4.787 4.787 0 104.787-4.787" fill="#FC9628"/></g></svg>